<!DOCTYPE svg PUBLIC "-//W3C//DTD SVG 1.1//EN" "http://www.w3.org/Graphics/SVG/1.1/DTD/svg11.dtd">
<!-- Uploaded to: SVG Repo, www.svgrepo.com, Transformed by: SVG Repo Mixer Tools -->
<svg fill="#bf0475" height="800px" width="800px" version="1.1" id="Layer_1" xmlns="http://www.w3.org/2000/svg" xmlns:xlink="http://www.w3.org/1999/xlink" viewBox="0 0 512 512" xml:space="preserve" stroke="#bf0475">
<g id="SVGRepo_bgCarrier" stroke-width="0"/>
<g id="SVGRepo_tracerCarrier" stroke-linecap="round" stroke-linejoin="round"/>
<g id="SVGRepo_iconCarrier"> <g> <g> <g> <polygon points="223.874,321.948 279.277,266.545 201.73,244.401 "/> <path d="M422.72,42.667h-60.053V32.491c0-17.92-14.571-32.491-32.47-32.491H181.803c-17.899,0-32.469,14.571-32.469,32.491 v10.176H89.28c-25.707,0-46.613,20.907-46.613,46.613v376.107C42.667,491.093,63.573,512,89.28,512h333.44 c25.685,0,46.613-20.907,46.613-46.613V89.28C469.333,63.573,448.405,42.667,422.72,42.667z M192,42.667h128v42.667H192V42.667z M356.416,399.083c-4.16,4.16-9.621,6.251-15.083,6.251c-5.461,0-10.923-2.091-15.083-6.251l-59.584-59.584l-38.251,38.251 c-4.032,4.053-9.493,6.251-15.083,6.251c-1.792,0-3.584-0.213-5.355-0.683c-7.317-1.899-13.077-7.531-15.168-14.784 L150.144,219.2c-2.133-7.467-0.043-15.467,5.44-20.949c5.504-5.483,13.568-7.573,20.928-5.419l149.333,42.667 c7.275,2.069,12.907,7.829,14.805,15.147c1.899,7.317-0.213,15.104-5.568,20.437l-38.251,38.251l59.584,59.584 C364.757,377.259,364.757,390.741,356.416,399.083z"/> </g> </g> </g> </g>
</svg>